<?xml version="1.0" encoding="utf-8"?>
<!-- Generator: Adobe Illustrator 24.0.1, SVG Export Plug-In . SVG Version: 6.00 Build 0)  -->
<svg version="1.1" id="Layer_1" xmlns="http://www.w3.org/2000/svg" xmlns:xlink="http://www.w3.org/1999/xlink" x="0px" y="0px"
	 viewBox="0 0 394 146.4" style="enable-background:new 0 0 394 146.4;" xml:space="preserve">
<style type="text/css">
	.st0{fill:#B2C541;}
</style>
<g>
	<g>
		<rect x="11" y="46.6" class="st0" width="364.6" height="47.7"/>
	</g>
	<g>
		<path d="M45.9,77.6c-2.2,2.7-5.5,4.2-9,4.2c-5.6,0-11.6-4.5-11.6-11.2c0-6.7,6-11.2,11.6-11.2c2.4,0,4.4,0.4,6,1.1l0.6,2.9h4.8
			v-6.1L48,57.1c-3.5-2.2-7.1-3.2-11.1-3.2c-9.2,0-17,7.6-17,16.7c0,9,7.8,16.7,17,16.7c4.9,0,9.6-2.1,12.9-5.8l0.3-0.4l-3.9-3.9
			L45.9,77.6z"/>
		<polygon points="80.9,54 52.9,54 52.9,59 64.1,59 64.1,87 69.6,87 69.6,59 80.9,59 		"/>
		<path d="M89.9,54L80,87h5.5l2.6-8.7h14.8l2.6,8.7h5.5l-9.9-33H89.9z M97.1,59l4.3,14.3H89.6L93.9,59H97.1z"/>
		<path d="M156.2,80.4l-3.3-7.2c-0.7-1.5-1.7-2.8-2.7-3.5c0.9-0.7,1.5-1.9,1.8-2.6l2.9-6.4c0.3-0.7,0.8-1.2,1.2-1.2h1.8v-4.8
			l-1.7-0.6l-0.2,0c-2.6,0-4.8,1.5-6,4.2l-3.7,7.9c-0.3,0.9-1.2,1.2-1.7,1.2h-4.8V54h-5.4v13.3h-4.8c-0.5,0-1.3-0.3-1.7-1.2
			l-3.7-7.9c-1.2-2.7-3.4-4.2-6-4.2l-1.8,0.6v4.8h1.8c0.4,0,0.9,0.5,1.2,1.2l2.9,6.4c0.3,0.8,1,1.9,1.8,2.6c-1,0.7-2,2-2.7,3.5
			l-3.3,7.2c-0.3,0.5-0.8,1.4-1.3,1.4h-2.3v4.9l2.3,0.6c2.6,0,4.9-1.6,6.1-4.2l4.1-8.8c0.3-0.9,1.3-1.4,1.8-1.4h5.4V87h5.4V72.8h5.4
			c0.5,0,1.4,0.5,1.8,1.4l4.1,8.8c1.2,2.6,3.5,4.2,6.3,4.2l2.1-0.5v-4.9h-2.3C157.1,81.7,156.6,81.2,156.2,80.4z"/>
		<polygon points="171.6,82.3 171.5,82.3 171.5,54 166.1,54 166.1,87 175.1,87 188.4,58.8 188.5,58.8 188.5,87 193.9,87 193.9,54 
			184.8,54 		"/>
		<path d="M215,54h-14.8v33h5.4v-9.8h9.4c6.4,0,11.6-5.2,11.6-11.6S221.4,54,215,54z M215,72.1h-9.4V59.3h9.4c3.3,0,6.2,3,6.2,6.4
			C221.2,69,218.2,72.1,215,72.1z"/>
		<path d="M248.8,53.9c-9.2,0-17,7.6-17,16.6c0,9,7.8,16.7,17,16.7c9.3,0,17.1-7.6,17.1-16.7C265.9,61.5,258,53.9,248.8,53.9z
			 M248.8,81.7c-5.6,0-11.6-4.5-11.6-11.2c0-5.4,4.7-11.2,11.6-11.2c5.6,0,11.7,4.5,11.7,11.2C260.4,75.9,255.8,81.7,248.8,81.7z"/>
		<path d="M293.6,69.6c1.6-1.4,2.8-4,2.8-6.4c0-5.2-4-9.2-9.2-9.2h-15.8v33h16.7c5.3,0,9.7-4.3,9.7-9.7
			C297.7,74.4,295.9,71.1,293.6,69.6z M276.8,72.6h11.2c2.4,0,4.2,2.5,4.2,4.8c0,2.5-2,4.7-4.2,4.7h-11.2V72.6z M287.2,67.6h-10.4
			V59h10.4c2,0,3.8,2,3.8,4.2C291,65.2,289.4,67.6,287.2,67.6z"/>
		<path d="M328.6,80.4l-4-8.8c-0.3-0.7-0.9-1.4-1.5-1.9c0.3-0.3,0.5-0.6,0.7-0.9l3.6-7.9c0.4-0.9,0.9-1.4,1.3-1.4h1.8v-4.8l-1.7-0.6
			l-0.2,0c-2.6,0-4.9,1.6-6.1,4.2l-3.7,7.9c-0.3,0.8-1,1.4-1.7,1.4H309V54h-5.4v33h5.4V72.6h8.9c0.8,0,1.5,0.8,1.8,1.6l4.1,8.8
			c1.2,2.6,3.5,4.2,6.2,4.2c0,0,0,0,0,0l2.1-0.5v-4.9h-2.3C329.5,81.7,329,81.2,328.6,80.4z"/>
		<polygon points="356.8,54 343.6,82.3 343.5,82.3 343.5,54 338,54 338,87 347.1,87 360.3,58.8 360.4,58.8 360.4,87 365.9,87 
			365.9,54 		"/>
	</g>
	<g>
		<path d="M98.8,100.7H83.9v33h5.4v-9.8h9.4c6.4,0,11.6-5.2,11.6-11.6C110.4,105.9,105.2,100.7,98.8,100.7z M98.8,118.7h-9.4v-12.8
			h9.4c3.3,0,6.2,3,6.2,6.4C105,115.7,102,118.7,98.8,118.7z"/>
		<path d="M132.5,100.6c-9.2,0-17,7.6-17,16.6c0,9,7.8,16.7,17,16.7c9.3,0,17.1-7.6,17.1-16.7C149.6,108.2,141.8,100.6,132.5,100.6z
			 M132.5,128.4c-5.6,0-11.6-4.5-11.6-11.2c0-5.4,4.7-11.2,11.6-11.2c5.6,0,11.7,4.5,11.7,11.2C144.2,122.6,139.5,128.4,132.5,128.4
			z"/>
		<path d="M180.9,124.2c-2.2,2.7-5.5,4.2-9,4.2c-5.6,0-11.6-4.5-11.6-11.2c0-6.7,6-11.2,11.6-11.2c2.4,0,4.4,0.4,6,1.1l0.6,2.9h4.8
			v-6.1l-0.3-0.2c-3.5-2.2-7.1-3.2-11.1-3.2c-9.2,0-17,7.6-17,16.7s7.8,16.7,17,16.7c4.9,0,9.6-2.1,12.9-5.8l0.3-0.4l-3.9-3.9
			L180.9,124.2z"/>
		<path d="M198.9,100.7l-9.9,33h5.5l2.6-8.7h14.8l2.6,8.7h5.5l-9.9-33H198.9z M206.1,105.7l4.3,14.3h-11.8l4.3-14.3H206.1z"/>
		<polygon points="221.3,105.7 232.6,105.7 232.6,133.7 238,133.7 238,105.7 249.3,105.7 249.3,100.7 221.3,100.7 		"/>
		<path d="M269.8,100.6c-9.2,0-17,7.6-17,16.6c0,9,7.8,16.7,17,16.7c9.3,0,17.1-7.6,17.1-16.7C286.8,108.2,279,100.6,269.8,100.6z
			 M269.8,128.4c-5.6,0-11.6-4.5-11.6-11.2c0-5.4,4.7-11.2,11.6-11.2c5.6,0,11.7,4.5,11.7,11.2C281.4,122.6,276.7,128.4,269.8,128.4
			z"/>
		<polygon points="308.6,116.9 301.1,100.7 292.4,100.7 292.4,133.7 297.8,133.7 297.8,106.6 305,122 312.3,122 319.4,106.5 
			319.4,133.7 324.9,133.7 324.9,100.7 316.1,100.7 		"/>
		<path d="M352.9,100.7h-11.2l-9.9,33h5.5l2.6-8.7h14.8l2.6,8.7h5.5L352.9,100.7z M349,105.7l4.3,14.3h-11.8l4.3-14.3H349z"/>
	</g>
	<polygon points="77,9.4 77,14.4 88.3,14.4 88.3,42.4 93.7,42.4 93.7,14.4 105,14.4 105,9.4 	"/>
	<rect x="64.2" y="9.7" width="5.4" height="32.6"/>
</g>
</svg>
